PathFileType	4	(x/y/z)	S10_P20_T25
DataRate	CameraRate	NumFrames	NumMarkers	Units	OrigDataRate	OrigDataStartFrame	OrigNumFrames
240	240	4	51	mm	240	149	396
Frame#	Time	Sternum			R.Acromium			L.Acromium			Top.Head			R.ASIS			L.ASIS			R.PSIS			L.PSIS			R.Great.Tro			L.Great.Tro			R.Iliac.Crest			L.Iliac.Crest			V.Sacral			R.Thigh.Upper.Post			R.Thigh.Lower.Ant			R.Thigh.Lower.Post			R.Thigh.Upper.Ant			R.Knee.Lat			R.Knee.Med			R.Shank.Upper.Post			R.Shank.Lower.Ant			R.Shank.Lower.Post			R.Shank.Upper.Ant			R.Ankle.Lat			R.Ankle.Med			R.Heel.Upper			R.Heel.Med			R.Heel.Lat			R.Toe.Lat			R.Toe.Med			R.Toe.Tip			L.Thigh.Upper.Post			L.Thigh.Lower.Ant			L.Thigh.Lower.Post			L.Thigh.Upper.Ant			L.Knee.Lat			L.Knee.Med			L.Shank.Upper.Post			L.Shank.Lower.Ant			L.Shank.Lower.Post			L.Shank.Upper.Ant			L.Ankle.Lat			L.Ankle.Med			L.Heel.Upper			L.Heel.Med			L.Heel.Lat			L.Toe.Lat			L.Toe.Med			L.Toe.Tip			Cervical.Spine			Back			
		X1	Y1	Z1	X2	Y2	Z2	X3	Y3	Z3	X4	Y4	Z4	X5	Y5	Z5	X6	Y6	Z6	X7	Y7	Z7	X8	Y8	Z8	X9	Y9	Z9	X10	Y10	Z10	X11	Y11	Z11	X12	Y12	Z12	X13	Y13	Z13	X14	Y14	Z14	X15	Y15	Z15	X16	Y16	Z16	X17	Y17	Z17	X18	Y18	Z18	X19	Y19	Z19	X20	Y20	Z20	X21	Y21	Z21	X22	Y22	Z22	X23	Y23	Z23	X24	Y24	Z24	X25	Y25	Z25	X26	Y26	Z26	X27	Y27	Z27	X28	Y28	Z28	X29	Y29	Z29	X30	Y30	Z30	X31	Y31	Z31	X32	Y32	Z32	X33	Y33	Z33	X34	Y34	Z34	X35	Y35	Z35	X36	Y36	Z36	X37	Y37	Z37	X38	Y38	Z38	X39	Y39	Z39	X40	Y40	Z40	X41	Y41	Z41	X42	Y42	Z42	X43	Y43	Z43	X44	Y44	Z44	X45	Y45	Z45	X46	Y46	Z46	X47	Y47	Z47	X48	Y48	Z48	X49	Y49	Z49	X50	Y50	Z50	X51	Y51	Z51	

149	0.61667	-487.16	1270.9	325.66	-629.85	1415.5	473.23	-602	1465.1	179.3	-640.59	1743.4	351.94	-539.26	1005.2	419.39	-535.1	1012.5	189.62	-739.91	1016	329.63	-732.06	1022.5	249.9	-601.65	927.83	493.08	-600.26	944.13	133.08	-638.36	1081.8	461.93	-600.29	1086.3	162.76	-757.45	984.53	293.39	-523.75	724.42	480.09	-451.8	666.62	435.54	-506	637.39	467.5	-469.14	756.18	442.95	-474.38	518.41	421.47	-497.44	524.59	296.4	-526.35	288.74	426.89	-460.95	229.68	402.89	-521.81	214.79	419.74	-459.18	307.01	409.37	-502.85	109.87	395.75	-502.79	121.36	317.78	-568.44	64.831	355.09	-559.32	35.828	327.77	-559.55	40.417	389.39	-383.89	39.97	422.16	-363.03	45.369	310.69	-303.07	63.656	349.21	-660.98	665.98	143.42	-590.75	580.77	151.55	-663.26	571.64	161.38	-582.28	669.61	133.59	-647.55	489.16	160.4	-609.26	471.07	284.87	-827.93	376.71	171.59	-841.55	266.34	175.99	-879.77	318.6	180.8	-789.55	324.1	166.64	-945.62	208.92	190.24	-920.02	203.34	272.68	-990.79	245.86	235.94	-1009.3	224.46	272.78	-1019.3	226.2	209.44	-958.4	68.049	174.37	-926.66	64.154	279.2	-891.41	36.723	236.27	-696.05	1484.5	328.48	-774.04	1276.8	295.1
150	0.62083	-481.44	1271.2	325.42	-623.46	1415.9	473.53	-597.03	1465.3	179.44	-634.88	1743.7	352.07	-533.44	1005.4	419.71	-529.93	1012.6	189.87	-734.32	1016.2	330.33	-726.71	1022.5	250.57	-595.77	928.19	493.56	-594.86	943.97	133.49	-632.33	1082	462.44	-595.16	1086.2	163.1	-751.96	984.59	294.21	-518.45	724.56	480.54	-446.71	666.54	435.94	-500.99	637.47	467.93	-463.78	756.16	443.39	-469.94	518.22	421.73	-492.54	524.82	296.7	-523.93	288.91	427.04	-459.12	229.26	402.91	-520.12	214.92	419.81	-456.6	306.52	409.42	-502.35	109.99	395.64	-502.21	121.57	317.71	-568.38	64.948	355.08	-559.25	35.925	327.77	-559.48	40.512	389.38	-383.79	39.981	422.23	-362.87	45.068	310.62	-302.84	63.055	349.21	-652.76	665	143.33	-581.49	580.6	150.89	-653.87	570.58	161.03	-574.13	669.61	133.11	-637.15	488.72	159.72	-597.49	470.04	283.9	-818.04	378.59	171.67	-832.98	268.39	175.39	-870.76	321.07	180.74	-780.34	325.52	166.13	-937.41	212.11	189.85	-911.73	206.06	272.54	-980.55	250.57	235.7	-999.64	229.99	272.78	-1010.1	231.84	209.49	-954.89	70.773	174.54	-922.57	66.224	279.32	-889.08	36.154	235.87	-690.36	1484.8	329.1	-768.52	1277	296.21
151	0.625	-475.75	1271.5	325.15	-617.07	1416.3	473.82	-592.07	1465.5	179.56	-629.18	1744	352.18	-527.64	1005.6	420.02	-524.8	1012.6	190.1	-728.76	1016.4	331.03	-721.41	1022.5	251.25	-589.92	928.54	494.03	-589.53	943.83	133.89	-626.31	1082.3	462.94	-590.1	1086.2	163.41	-746.5	984.66	295.04	-513.27	724.67	480.99	-441.75	666.4	436.37	-496.12	637.51	468.37	-458.51	756.09	443.85	-465.68	518	422	-487.73	525	297.02	-521.62	289.07	427.19	-457.38	228.86	402.95	-518.5	215.04	419.88	-454.13	306.03	409.5	-501.87	110.1	395.55	-501.66	121.77	317.66	-568.33	65.058	355.07	-559.18	36.02	327.77	-559.42	40.597	389.38	-383.69	40.004	422.31	-362.72	44.817	310.55	-302.62	62.519	349.22	-644.57	664.11	143.26	-572.28	580.54	150.25	-644.51	569.62	160.69	-566.02	669.69	132.64	-626.74	488.4	159.04	-585.77	469.18	282.97	-808.04	380.5	171.73	-824.26	270.48	174.8	-861.62	323.57	180.65	-771.02	327	165.64	-929.04	215.28	189.45	-903.27	208.8	272.4	-970.22	255.13	235.44	-989.85	235.36	272.76	-1000.7	237.3	209.53	-951	73.561	174.71	-918.08	68.301	279.46	-886.4	35.633	235.44	-684.67	1485.1	329.72	-763.01	1277.2	297.32
152	0.62917	-470.09	1271.7	324.84	-610.68	1416.7	474.08	-587.14	1465.7	179.65	-623.48	1744.3	352.28	-521.86	1005.9	420.3	-519.71	1012.7	190.31	-723.22	1016.5	331.73	-716.15	1022.6	251.92	-584.09	928.89	494.48	-584.26	943.71	134.28	-620.32	1082.5	463.42	-585.11	1086.2	163.7	-741.08	984.76	295.86	-508.2	724.76	481.44	-436.92	666.21	436.81	-491.41	637.53	468.79	-453.33	755.97	444.33	-461.6	517.75	422.3	-483.02	525.11	297.34	-519.41	289.21	427.35	-455.72	228.47	403.01	-516.97	215.17	419.96	-451.77	305.56	409.6	-501.43	110.22	395.49	-501.13	121.98	317.63	-568.29	65.162	355.06	-559.11	36.113	327.77	-559.36	40.673	389.38	-383.6	40.033	422.38	-362.58	44.608	310.48	-302.43	62.039	349.23	-636.42	663.32	143.21	-563.13	580.58	149.62	-635.19	568.79	160.4	-557.97	669.85	132.18	-616.34	488.21	158.38	-574.13	468.51	282.1	-797.96	382.43	171.76	-815.41	272.62	174.22	-852.38	326.08	180.54	-761.59	328.53	165.15	-920.51	218.42	189.04	-894.66	211.56	272.25	-959.83	259.54	235.17	-979.94	240.54	272.74	-991.14	242.56	209.55	-946.71	76.393	174.86	-913.16	70.368	279.59	-883.3	35.178	234.96	-678.99	1485.4	330.33	-757.52	1277.5	298.44
